<?xml version="1.0" encoding="UTF-8"?>
<svg xmlns="http://www.w3.org/2000/svg" xmlns:xlink="http://www.w3.org/1999/xlink" width="128px" height="128px" viewBox="0 0 128 128" version="1.1">
<g id="surface1">
<path style=" stroke:none;fill-rule:nonzero;fill:rgb(0%,0%,0%);fill-opacity:1;" d="M 110 24 C 109.996094 20.6875 107.3125 18.003906 104 18 L 24 18 C 22.425781 18 20.917969 18.617188 19.796875 19.722656 C 19.785156 19.738281 19.769531 19.746094 19.757812 19.757812 C 19.746094 19.769531 19.738281 19.785156 19.722656 19.796875 C 18.617188 20.917969 18 22.425781 18 24 L 18 104 C 18.003906 107.3125 20.6875 109.996094 24 110 L 104 110 C 105.574219 110 107.082031 109.382812 108.203125 108.277344 C 108.214844 108.261719 108.230469 108.253906 108.242188 108.242188 C 108.253906 108.230469 108.265625 108.214844 108.277344 108.203125 C 109.382812 107.082031 110 105.574219 110 104 Z M 106 24 L 106 103.171875 L 24.828125 22 L 104 22 C 105.105469 22 106 22.894531 106 24 Z M 22 104 L 22 24.828125 L 103.171875 106 L 24 106 C 22.894531 106 22 105.105469 22 104 Z M 22 104 "/>
</g>
</svg>
